<?xml version="1.0" encoding="utf-8"?>
<!-- Generator: Adobe Illustrator 21.0.0, SVG Export Plug-In . SVG Version: 6.00 Build 0)  -->
<svg version="1.1" id="图层_1" xmlns="http://www.w3.org/2000/svg" xmlns:xlink="http://www.w3.org/1999/xlink" x="0px" y="0px"
	 viewBox="0 0 841.9 595.3" style="enable-background:new 0 0 841.9 595.3;" xml:space="preserve">
<style type="text/css">
	.st0{fill:url(#SVGID_1_);stroke:url(#SVGID_2_);stroke-miterlimit:10;}
	.st1{fill:#FFFFFF;stroke:#FFFFFF;stroke-miterlimit:10;}
	.st2{opacity:0.5;fill:none;stroke:#FFFFFF;stroke-width:10;stroke-linecap:round;stroke-miterlimit:10;}
</style>
<linearGradient id="SVGID_1_" gradientUnits="userSpaceOnUse" x1="424.2077" y1="516.2035" x2="424.2077" y2="34.3464">
	<stop  offset="0" style="stop-color:#EF9D20"/>
	<stop  offset="0.2127" style="stop-color:#F0A420"/>
	<stop  offset="0.5662" style="stop-color:#F3B71D"/>
	<stop  offset="1" style="stop-color:#F8D317"/>
</linearGradient>
<linearGradient id="SVGID_2_" gradientUnits="userSpaceOnUse" x1="182.7791" y1="291.5368" x2="665.6363" y2="291.5368">
	<stop  offset="0" style="stop-color:#EF9D20"/>
	<stop  offset="0.3016" style="stop-color:#F0A420;stop-opacity:0.8492"/>
	<stop  offset="0.8015" style="stop-color:#F3B71E;stop-opacity:0.5992"/>
	<stop  offset="1" style="stop-color:#F5BF1D;stop-opacity:0.5"/>
</linearGradient>
<path class="st0" d="M640.9,515H207.5c-13.4,0-24.2-10.8-24.2-24.2V92.3c0-13.4,10.8-24.2,24.2-24.2h433.4
	c13.4,0,24.2,10.8,24.2,24.2v398.4C665.1,504.1,654.3,515,640.9,515z"/>
<g>
	<path class="st1" d="M352.6,310.4h40.9l6.5-9.2c1.4-1.9,2.7-2.9,3.9-2.9c1.2,0,2.8,0.9,4.8,2.6l7.4,6.5c2.9,2.6,4.4,4.5,4.4,5.8
		s-1.5,1.9-4.5,1.9h-55.6c15,19,36.2,29.5,63.7,31.7v2.9c-8.6,0.3-14.9,3.4-18.9,9.2c-0.6,1-1.3,1.5-2.1,1.5c-1.6,0-7.1-3-16.3-9
		c-9.3-6-16.2-11.7-20.7-17.1c-4.5-5.4-8.1-11.8-10.8-19.2h-2.6v28.3l0.3,17.3c0,1.5-0.3,2.6-1,3.2c-0.6,0.6-2.6,1.4-5.8,2.5
		c-3.2,1.1-5.3,1.6-6.3,1.6s-1.6-0.2-1.8-0.6c-0.2-0.4-0.3-1.2-0.3-2.5l0.3-7.4c0.1-5.1,0.2-9.4,0.2-12.9v-23
		c-6.9,8.8-16.2,17.1-28,24.6c-11.8,7.6-24.5,13.5-38.2,17.9l-1.6-3.1c25-11.7,43.3-27,55-45.9h-39.1c-2.8,0-5.1,0.3-6.9,0.8
		l-3.1-6.3c2.3,0.5,5,0.8,8.1,0.8h54c0-4.6-0.2-9-0.5-13.1l8.2,1.5c-0.3-0.2-1-1.6-2.1-4c-1.9-4.8-6.2-10.5-12.8-17l1.8-2.1
		c6.7,2.3,11.6,4.2,14.9,5.7c3.2,1.6,5.4,2.9,6.4,4.1c1,1.2,1.5,2.6,1.5,4.3c0,1.7-0.7,3.5-2.2,5.6c-1.5,2-3.1,3.3-4.9,3.9
		c6,1.2,9.1,2.2,9.1,2.9c0,0.5-1.7,1.8-5,3.7V310.4z M374.4,239.5h18.4l6.5-8.7c1-1.3,2-1.9,3-1.9c1,0,3.1,1.3,6.2,4l7.1,6.3
		c1.6,1.4,2.4,2.7,2.4,3.8s-1.3,1.7-4,1.7h-39.6l0.3,8.2c0,1-0.1,1.8-0.3,2.3c-0.2,0.6-1.9,1.5-5.1,2.6c-3.2,1.1-5.1,1.7-5.9,1.7
		c-0.8,0-1.1-0.9-1.1-2.6v-12.3h-32V256c0,1.3-0.1,2.2-0.4,2.7c-0.3,0.5-1.5,1.4-3.6,2.5c-2.2,1.1-4.1,1.7-5.7,1.7
		c-1.7,0-2.6-0.2-2.9-0.5c-0.3-0.3-0.4-0.8-0.4-1.5s0.1-2.3,0.2-4.9c0.2-2.6,0.2-6.4,0.2-11.4h-36c-2.8,0-5.1,0.3-6.8,1l-3.9-6.9
		c2.3,0.5,5,0.8,8.1,0.8h38.6v-10.3c0-3.6-0.2-7.5-0.5-11.8c3.8,0.5,7.4,1.3,10.9,2.2c3.5,0.9,5.6,1.5,6.4,1.9
		c0.8,0.3,1.1,0.7,1.1,1.1c0,0.8-1.8,2.2-5.3,4.2v12.8h32v-10.3c0-3.6-0.2-7.5-0.5-11.8c12.6,2.6,18.9,4.6,18.9,6
		c0,0.9-2.1,2.5-6.3,5V239.5z M388.7,256.6c3.1,3.6,5.6,6.7,7.4,9.5c1.8,2.7,2.7,4.4,2.7,5c0,0.6-0.3,0.9-1,0.9s-1.5-0.2-2.5-0.6
		c-1-0.4-2.7-0.6-5-0.6c-2.3,0-7.1,0.3-14.5,1c-25.3,2.2-48.8,3.2-70.5,3.2c-8.4,0-15.7-0.2-22-0.5l-0.2-3.6
		C328.9,267.8,364,263.1,388.7,256.6z M298,277.6c8.3,3.3,14,5.8,17.2,7.5c3.2,1.7,5.2,3.1,6.1,4.4c0.9,1.2,1.3,3.1,1.3,5.6
		c0,2.5-1,5-2.9,7.5c-1.9,2.5-3.5,3.8-4.8,3.8c-1.2,0-2.2-0.4-2.7-1.1c-0.6-0.8-1.3-2.5-2.2-5.2c-0.9-2.7-2.7-6.1-5.5-10.3
		c-2.8-4.1-5.6-7.6-8.2-10.3L298,277.6z M381.2,272.6c3.2,1.2,6.4,2.6,9.5,4.2s5,2.7,5.9,3.2c0.9,0.5,1.3,1.1,1.3,1.5
		s-0.7,0.8-2.2,1s-3.6,1.7-6.5,4.6c-5.8,5.8-13.3,12.6-22.3,20.4l-3.1-2.1C368.8,298.4,374.7,287.5,381.2,272.6z"/>
	<path class="st1" d="M515.1,252.9h36.5l8.1-10.7c1-1.2,2-1.8,3.2-1.8c1.2,0,4.3,2.3,9.4,6.8c5.1,4.5,7.6,7.4,7.6,8.7
		s-0.9,1.9-2.7,1.9h-52.2c7.1,20,15.4,35.6,24.7,46.6c9.4,11,21.3,19.1,35.9,24.2l-0.5,2.9c-1.8-0.1-4-0.2-6.6-0.2s-5,0.5-7.3,1.4
		c-2.3,0.9-4.2,2.6-5.8,5.1c-0.5,0.9-1.1,1.3-1.8,1.3c-1.3,0-5.5-3.6-12.6-10.7s-13-15.8-17.6-25.9c-4.6-10.2-9.1-25.1-13.3-44.7h-5
		v66.3h11.3l4.4-6.1c1.4-2,2.5-3.1,3.2-3.1c0.8,0,2.2,1,4.2,3c2,2,4.1,4,6.2,5.9s3.2,3.4,3.2,4.4s-1,1.5-3.1,1.5h-29.4
		c0,7.3,0.1,13.1,0.2,17.3l0.3,14.2c0,1-0.5,1.8-1.4,2.4c-0.9,0.6-2.8,1.4-5.7,2.3c-2.9,0.9-5.1,1.3-6.5,1.3c-0.6,0-1-0.7-1-2.1
		l0.3-13.4c0.1-4.7,0.2-12.1,0.2-22h-23.8c-2.8,0-5.1,0.3-6.9,0.8l-2.7-7.1c2.3,0.5,5,0.8,8.1,0.8h25.4v-53.5
		c-6.8,16.3-15.3,30.5-25.5,42.8s-23.1,24-38.9,35.1l-1.9-2.4c28-23.7,46.3-53.1,55-88.2h-41.7c-2.8,0-5.1,0.3-6.9,0.8l-2.7-6.6
		c2.3,0.5,5,0.8,8.1,0.8h54.6c0-15.9-0.2-26.4-0.5-31.4c12.5,1.6,18.7,3.2,18.7,4.8c0,0.9-1.6,2.7-4.7,5.5V252.9z"/>
</g>
<path class="st2" d="M218.6,165.1l-0.1-38c0,0-0.3-6.1,3-12.3c2.8-5.2,8.3-10.5,18.7-12.1h32.5"/>
<path class="st2" d="M633.2,418.3l0.1,38c0,0,0.3,6.1-3,12.3c-2.8,5.2-8.3,10.5-18.7,12.1H579"/>
<path class="st2" d="M633.4,164.5l0.1-38c0,0,0.3-6.1-3-12.3c-2.8-5.2-8.3-10.5-18.7-12.1h-32.5"/>
<path class="st2" d="M218.6,418.8l-0.1,38c0,0-0.3,6.1,3,12.3c2.8,5.2,8.3,10.5,18.7,12.1h32.5"/>
</svg>
